<?xml version="1.0" encoding="UTF-8"?>
<svg id="Layer_2" viewBox="0 0 323.81 88.61" xmlns="http://www.w3.org/2000/svg">
    <defs>
        <style>.cls-1 {
            fill: #fff;
        }</style>
    </defs>
    <g id="Logo_White">
        <path class="cls-1"
              d="m79.29,85.1h-.17v-12.63h-1.76v12.59c-10.51-.49-19.96-4.94-26.93-11.9-3.91-3.92-7.03-8.62-9.1-13.85h-3.75c1.56,4.36,3.79,8.4,6.57,12.01,0,0,0,0,0,0H7.93v3.51h39.23c8.08,8.5,19.49,13.79,32.13,13.79,11.13,0,21.32-4.11,29.1-10.89l-2.31-2.65c-7.17,6.25-16.53,10.03-26.79,10.03Z" />
        <path class="cls-1"
              d="m51.13,43.43h-12.62c.17-8.43,2.91-16.24,7.45-22.67h-4.2c-2.31,3.66-4.09,7.68-5.25,11.96h0s-36.51,0-36.51,0v3.51h35.72c-.48,2.62-.74,5.32-.74,8.08s.25,5.42.73,8.03h-9.22v3.51h13.66c-1-3.39-1.57-6.96-1.64-10.67,0,0,0,0,0,0h12.62v-1.76Z" />
        <polygon class="cls-1" points="63.79 33.82 61.31 36.31 78.13 53.07 111.47 25.98 109.25 23.26 78.37 48.35 63.79 33.82" />
        <path class="cls-1"
              d="m47.93,17.3h.78c.55-.63,1.13-1.25,1.73-1.84,7.39-7.38,17.58-11.95,28.85-11.95V0c-12.64,0-24.04,5.29-32.13,13.79h-12.36v3.51h13.12Z" />
        <rect class="cls-1" height="3.51" width="10.02" x="11.68" y="52.34" />
        <rect class="cls-1" height="3.51" width="14.97" x="15.28" y="13.79" />
        <path class="cls-1" d="m127.11,17.93v29.6h-3.17v-29.6h3.17Zm19.11,29.6l-16.75-15.1,16.11-14.5h4.78l-16.11,14.5,16.75,15.1h-4.78Z" />
        <path class="cls-1"
              d="m174.97,17.93h3.17v17.3c0,8.16-4.36,12.77-12.52,12.77s-12.52-4.61-12.52-12.77v-17.3h3.17v15.94c0,7.4,2.28,11.37,9.35,11.37s9.35-3.97,9.35-11.37v-15.94Z" />
        <path class="cls-1"
              d="m229.3,17.93l-10.74,29.6h-3.55l-9.18-25.37-9.14,25.37h-3.55l-10.78-29.6h3.38l9.18,25.37,9.13-25.37h3.55l9.18,25.37,9.14-25.37h3.38Z" />
        <path class="cls-1" d="m255.08,47.53l-12.18-26.39-12.22,26.39h-3.51l13.79-29.6h3.85l13.79,29.6h-3.51Z" />
        <path class="cls-1" d="m265.98,17.93v29.6h-3.17v-29.6h3.17Zm19.11,29.6l-16.75-15.1,16.11-14.5h4.78l-16.11,14.5,16.75,15.1h-4.78Z" />
        <path class="cls-1" d="m320.3,47.53l-12.18-26.39-12.22,26.39h-3.51l13.79-29.6h3.85l13.79,29.6h-3.51Z" />
        <path class="cls-1"
              d="m147.07,56.1l-5.29,14.59h-1.75l-4.52-12.5-4.5,12.5h-1.75l-5.31-14.59h1.67l4.52,12.5,4.5-12.5h1.75l4.52,12.5,4.5-12.5h1.67Z" />
        <path class="cls-1" d="m173.96,70.68l-6-13-6.02,13h-1.73l6.79-14.59h1.9l6.79,14.59h-1.73Z" />
        <path class="cls-1" d="m193.51,56.1v14.59h-1.56v-14.59h1.56Zm9.42,14.59l-8.25-7.44,7.94-7.15h2.35l-7.94,7.15,8.25,7.44h-2.36Z" />
        <path class="cls-1" d="m234.46,70.68l-6-13-6.02,13h-1.73l6.79-14.59h1.9l6.79,14.59h-1.73Z" />
        <path class="cls-1" d="m256.06,57.45v13.23h-1.56v-13.23h-5.17v-1.35h11.9v1.35h-5.17Z" />
        <path class="cls-1" d="m277.48,70.68v-14.59h1.56v14.59h-1.56Z" />
    </g>
</svg>
